<svg version="1.2" baseProfile="tiny-ps" xmlns="http://www.w3.org/2000/svg" viewBox="0 0 56 76" width="56" height="76">
	<title>white-logo33-svg</title>
	<style>
		tspan { white-space:pre }
		.shp0 { fill: #ed8074 } 
	</style>
	<g id="Layer">
		<path id="Layer" fill-rule="evenodd" class="shp0" d="M32.6 1.78C33.3 2.32 33.92 2.96 34.4 3.76C34.8 4.44 35.52 5.82 34.18 6.04C33.66 6.12 32.74 5.42 32.04 5.2C31.12 4.9 30.2 4.7 29.26 4.62C27.54 4.44 25.84 4.58 24.38 4.98C23.58 5.2 22.82 5.46 22.08 5.8C21.72 5.96 21.02 6.42 20.84 5.82C20.38 4.44 22.8 1.92 23.82 1.24C26.68 -0.68 29.92 -0.26 32.6 1.78ZM6.26 49.2C8.3 46.06 12.7 44.4 16.62 42.94C17.4 42.64 18.16 42.36 18.9 42.06C19.56 41.5 20.26 40.82 20.8 40.22C21.2 39.78 21.52 39.4 21.68 39.14C21.54 39.02 21.4 38.9 21.26 38.78C20.26 37.88 19.34 36.76 18.52 35.46C17.74 34.26 17.06 32.9 16.44 31.38C16.16 31.3 15.9 31.2 15.64 31.08C15.3 30.92 14.98 30.72 14.68 30.5C13.82 29.86 13.24 28.96 12.92 27.98C12.54 26.88 12.48 25.66 12.62 24.54C12.7 23.96 12.86 23.46 13.12 23.04C13.36 22.6 13.7 22.24 14.14 21.98C14.26 21.9 14.4 21.86 14.54 21.88C14.3 20.64 14.32 19.46 14.38 18.06C14.52 14.44 15.44 11.54 18.32 9.02C22.66 5.24 31.26 4.9 36.04 8.16C36.76 8.66 37.42 9.24 38 9.9C39.94 12.12 41.68 16.98 41.64 19.96C41.64 20.66 41.52 21.36 41.28 22.08C41.26 22.14 41.26 22.22 41.24 22.32C41.76 22.64 42.18 23.04 42.48 23.5C42.92 24.18 43.12 24.96 43.08 25.78C43.02 26.56 42.76 27.4 42.26 28.22C41.68 29.16 40.8 30.08 39.62 30.86C38.6 33.24 37.18 35.6 35.44 37.52C34.9 38.12 34.3 38.68 33.68 39.18C34.18 39.72 35.1 40.5 35.98 41.26C36.14 41.38 36.3 41.52 36.44 41.66C37.28 42.04 38.12 42.36 38.94 42.7C42.6 44.2 46.32 45.72 48.26 49.2L53.44 49.2C54.74 49.2 55.8 50.42 55.6 51.9L52.78 73.24C52.58 74.7 51.56 75.92 50.06 75.92L5.56 75.92C4.08 75.92 3.04 74.7 2.86 73.24L0.02 51.9C-0.18 50.42 0.88 49.2 2.2 49.2L6.26 49.2ZM46.06 49.2C44.28 46.86 41.22 45.62 38.22 44.4C37.6 44.14 36.98 43.9 36.38 43.64C35.88 44.3 35.28 44.9 34.58 45.38C32.92 46.58 30.78 47.26 28.58 47.38C26.38 47.48 24.1 47.02 22.16 45.9C21.2 45.34 20.3 44.64 19.56 43.76C18.84 44.06 18.06 44.34 17.26 44.64C14.1 45.84 10.6 47.16 8.62 49.2L46.06 49.2ZM27.56 59.26C25.76 59.26 24.32 60.7 24.32 62.48C24.32 64.28 25.76 65.72 27.56 65.72C29.36 65.72 30.82 64.28 30.82 62.48C30.82 60.7 29.36 59.26 27.56 59.26ZM14.84 23.08C14.6 23.24 14.42 23.44 14.26 23.7C14.1 23.98 14 24.32 13.94 24.72C13.82 25.66 13.86 26.66 14.16 27.56C14.42 28.32 14.84 28.98 15.48 29.48C15.7 29.64 15.94 29.78 16.2 29.92C16.48 30.04 16.76 30.14 17.08 30.2C17.3 30.26 17.46 30.42 17.54 30.6C18.16 32.16 18.86 33.56 19.62 34.78C20.38 35.98 21.22 37 22.14 37.82C23.12 38.7 24.1 39.32 25.06 39.72C26.8 40.44 28.48 40.4 30.04 39.82C31.64 39.24 33.14 38.1 34.46 36.64C36.12 34.8 37.5 32.5 38.48 30.18C38.54 30.04 38.64 29.94 38.78 29.86C39.84 29.16 40.62 28.36 41.12 27.54C41.5 26.92 41.7 26.3 41.74 25.72C41.76 25.18 41.64 24.66 41.36 24.22C41.2 24 41.02 23.78 40.76 23.6C40.26 24.72 39.44 26.2 38.36 27.66L38.36 20.94C35.26 19.52 33.24 16.4 32.2 11.68C30.96 20.64 19.88 20.26 17.1 21.9L17.1 27.12C16.56 26.38 16.1 25.62 15.66 24.86C15.32 24.24 15.06 23.64 14.86 23.08L14.84 23.08ZM35.18 26.92C35.18 27.82 34.46 28.54 33.56 28.54C32.68 28.54 31.94 27.82 31.94 26.92C31.94 26.04 32.66 25.32 33.56 25.32C34.46 25.32 35.18 26.04 35.18 26.92ZM24.04 26.92C24.04 27.82 23.32 28.54 22.42 28.54C21.52 28.54 20.8 27.82 20.8 26.92C20.8 26.04 21.52 25.32 22.42 25.32C23.32 25.32 24.04 26.04 24.04 26.92ZM25.72 34.98C25.9 34.68 26.3 34.58 26.6 34.76C27.08 35.06 27.56 35.22 28.02 35.24C28.48 35.26 28.94 35.14 29.42 34.9C29.72 34.74 30.1 34.86 30.28 35.16C30.44 35.48 30.3 35.86 30 36.02C29.32 36.36 28.64 36.52 27.96 36.5C27.28 36.46 26.6 36.24 25.94 35.84C25.64 35.66 25.54 35.28 25.72 34.98ZM21.74 41.06C21.42 41.42 21.04 41.8 20.66 42.18C21.32 43.08 22.16 43.78 23.08 44.32C24.7 45.24 26.64 45.64 28.5 45.56C30.34 45.46 32.12 44.9 33.5 43.9C34.16 43.44 34.72 42.86 35.14 42.2C34.2 41.4 33.22 40.56 32.66 39.94C31.96 40.4 31.24 40.78 30.48 41.06C28.62 41.74 26.62 41.78 24.52 40.92C23.92 40.66 23.3 40.32 22.68 39.9C22.46 40.24 22.12 40.64 21.74 41.06Z" />
	</g>
</svg>